<?xml version="1.0" standalone="no"?>
<!DOCTYPE svg PUBLIC "-//W3C//DTD SVG 20010904//EN"
 "http://www.w3.org/TR/2001/REC-SVG-20010904/DTD/svg10.dtd">
<svg version="1.0" xmlns="http://www.w3.org/2000/svg"
 width="1084.000000pt" height="1084.000000pt" viewBox="0 0 1084.000000 1084.000000"
 preserveAspectRatio="xMidYMid meet">
<metadata>
Created by potrace 1.14, written by Peter Selinger 2001-2017
</metadata>
<g transform="translate(0.000000,1084.000000) scale(0.100000,-0.100000)"
fill="#000000" stroke="none">
<path d="M5119 10836 c-2 -2 -53 -7 -114 -10 -60 -4 -119 -9 -130 -11 -11 -2
-49 -7 -85 -10 -36 -3 -92 -10 -125 -15 -33 -5 -78 -12 -100 -15 -22 -4 -51
-8 -65 -11 -14 -2 -41 -7 -60 -10 -138 -23 -439 -96 -609 -148 -854 -263
-1625 -729 -2259 -1366 -110 -111 -289 -307 -320 -352 -8 -10 -25 -31 -39 -46
-81 -87 -339 -456 -450 -642 -100 -168 -224 -407 -313 -605 -62 -137 -173
-441 -229 -630 -44 -148 -114 -443 -136 -570 -2 -16 -7 -41 -9 -55 -3 -14 -8
-43 -11 -65 -19 -133 -25 -179 -30 -226 -4 -30 -8 -68 -10 -84 -27 -205 -27
-908 0 -1075 2 -14 7 -59 11 -100 3 -41 7 -77 9 -80 2 -3 6 -32 9 -65 4 -33 9
-67 11 -75 2 -8 6 -31 9 -50 3 -19 8 -45 10 -56 2 -12 7 -39 10 -60 4 -22 8
-46 11 -54 2 -8 6 -26 9 -40 3 -20 33 -150 50 -221 57 -231 168 -560 269 -794
92 -212 225 -479 287 -575 5 -8 21 -35 34 -60 26 -46 130 -208 225 -346 93
-137 307 -405 426 -534 79 -86 304 -310 370 -368 33 -30 74 -66 90 -81 67 -62
298 -243 425 -332 311 -220 619 -394 965 -544 61 -26 124 -53 140 -61 166 -75
676 -231 875 -267 14 -3 36 -8 50 -11 14 -3 39 -8 55 -11 17 -3 82 -14 145
-25 63 -12 135 -23 160 -26 25 -2 59 -7 77 -9 18 -3 61 -7 95 -10 35 -3 79 -7
98 -10 179 -22 797 -23 930 0 14 2 57 6 95 9 71 6 108 10 180 21 45 7 69 11
135 20 25 4 68 11 95 16 28 6 61 12 75 15 532 100 1154 330 1615 596 50 28 99
56 110 63 101 57 341 217 469 313 85 63 248 193 266 212 3 3 39 34 80 69 78
67 396 382 465 462 221 252 429 532 574 774 24 39 47 77 52 85 94 152 259 489
355 727 87 216 201 570 239 743 70 316 99 490 120 710 4 36 8 81 11 100 22
194 22 760 -1 925 -2 17 -6 59 -9 95 -9 93 -15 145 -27 225 -6 39 -13 84 -15
100 -9 59 -75 381 -86 420 -6 22 -12 45 -13 50 -26 122 -169 557 -219 668 -8
18 -27 61 -41 97 -119 288 -354 720 -516 945 -76 106 -213 291 -218 295 -3 3
-24 28 -46 55 -196 248 -513 567 -770 775 -44 36 -82 67 -85 70 -34 38 -411
298 -560 387 -193 116 -495 270 -670 342 -58 24 -118 49 -135 56 -256 109
-755 248 -1080 300 -55 9 -110 18 -121 20 -12 2 -48 7 -80 10 -33 4 -66 9 -75
10 -8 2 -55 6 -105 10 -49 4 -98 10 -109 12 -23 6 -710 14 -716 9z"/>
</g>
</svg>
